<?xml version="1.0" standalone="no"?>
<!DOCTYPE svg PUBLIC "-//W3C//DTD SVG 20010904//EN"
 "http://www.w3.org/TR/2001/REC-SVG-20010904/DTD/svg10.dtd">
<svg version="1.0" xmlns="http://www.w3.org/2000/svg"
 width="512.000000pt" height="512.000000pt" viewBox="0 0 512.000000 512.000000"
 preserveAspectRatio="xMidYMid meet">

<g transform="translate(0.000000,512.000000) scale(0.100000,-0.100000)"
fill="currentColor" stroke="none">
<path d="M395 5106 c-196 -49 -343 -202 -386 -405 -6 -29 -8 -816 -7 -2171 l3
-2125 22 -58 c58 -154 173 -268 323 -319 l65 -23 2145 0 c2089 0 2147 1 2204
19 151 50 276 174 328 326 l23 65 0 2145 c0 2089 -1 2147 -19 2204 -49 148
-168 270 -322 328 l-59 23 -2135 2 c-1671 1 -2146 -1 -2185 -11z m1146 -1383
c165 -46 282 -134 339 -254 39 -84 53 -157 48 -254 -9 -145 -71 -255 -190
-333 l-66 -44 69 -35 c133 -66 229 -182 259 -312 17 -73 7 -229 -18 -303 -24
-68 -77 -151 -123 -195 -88 -83 -233 -142 -394 -162 -54 -7 -282 -11 -567 -11
l-478 0 0 115 0 115 83 0 c88 0 146 12 159 32 4 7 8 324 8 704 0 542 -3 694
-13 708 -13 18 -104 35 -189 36 l-48 0 0 111 0 110 523 -3 c496 -4 526 -5 598
-25z m1794 -1 c228 -63 378 -199 424 -387 18 -71 16 -214 -4 -282 -39 -136
-132 -253 -259 -327 -37 -21 -66 -41 -66 -43 0 -11 316 -549 339 -575 35 -42
79 -58 161 -58 l70 0 0 -115 0 -115 -225 0 c-222 0 -225 0 -239 22 -8 13 -104
187 -214 388 l-201 365 -160 3 -161 2 0 -270 0 -270 23 -5 c12 -3 72 -6 132
-8 l110 -2 0 -110 0 -110 -417 -3 -418 -2 0 115 0 115 83 0 c88 0 146 12 159
32 4 7 8 324 8 704 0 542 -3 694 -13 708 -13 18 -104 35 -189 36 l-48 0 0 111
0 110 513 -3 c490 -4 515 -5 592 -26z m1184 -478 c174 -51 217 -280 73 -391
-117 -89 -298 -57 -369 65 -21 35 -27 59 -27 106 -2 168 150 272 323 220z m47
-1012 c55 -28 108 -92 125 -150 17 -59 17 -209 0 -282 -23 -96 -77 -195 -147
-270 -71 -75 -195 -166 -216 -158 -7 3 -67 40 -132 83 l-119 77 105 52 c129
63 210 123 249 184 l30 47 -57 7 c-68 9 -127 41 -166 89 -35 44 -48 133 -28
193 21 66 82 122 160 147 43 14 152 4 196 -19z"/>
<path d="M990 3230 l0 -281 218 3 217 3 52 29 c94 52 129 133 121 281 -6 108
-36 163 -118 209 l-55 31 -217 3 -218 3 0 -281z"/>
<path d="M990 2385 l0 -327 228 4 c208 4 232 6 286 27 71 28 129 85 150 148
35 103 29 238 -15 324 -24 48 -90 104 -148 125 -37 14 -89 18 -273 22 l-228 4
0 -327z"/>
<path d="M2800 3169 l0 -342 188 6 c155 4 197 9 241 26 149 56 208 159 199
345 -5 112 -33 181 -91 231 -69 60 -108 68 -334 73 l-203 4 0 -343z"/>
</g>
</svg>
